<svg xmlns="http://www.w3.org/2000/svg" xmlns:xlink="http://www.w3.org/1999/xlink" width="602" height="567" contentScriptType="application/ecmascript" contentStyleType="text/css" style="width:602px;height:567px;background:#fff" preserveAspectRatio="none" version="1.1" viewBox="0 0 602 567" zoomAndPan="magnify"><defs><filter id="f8fo3qvvf3v1x" width="300%" height="300%" x="-1" y="-1"><feGaussianBlur result="blurOut" stdDeviation="2"/><feColorMatrix in="blurOut" result="blurOut2" type="matrix" values="0 0 0 0 0 0 0 0 0 0 0 0 0 0 0 0 0 0 .4 0"/><feOffset dx="4" dy="4" in="blurOut2" result="blurOut3"/><feBlend in="SourceGraphic" in2="blurOut3" mode="normal"/></filter></defs><g><line style="stroke:#275a4b;stroke-width:2;stroke-dasharray:5,5" x1="79" x2="79" y1="56.594" y2="507.586"/><line style="stroke:#275a4b;stroke-width:2;stroke-dasharray:5,5" x1="303" x2="303" y1="56.594" y2="507.586"/><line style="stroke:#275a4b;stroke-width:2;stroke-dasharray:5,5" x1="520.5" x2="520.5" y1="56.594" y2="507.586"/><rect style="stroke:#3fa687;stroke-width:2" width="145" height="46.594" x="5" y="5" fill="#275A4B" filter="url(#f8fo3qvvf3v1x)"/><text x="72" y="24.995" fill="#FFF" font-family="sans-serif" font-size="14" font-weight="bold" lengthAdjust="spacing" textLength="11">A</text><text x="12" y="41.292" fill="#FFF" font-family="sans-serif" font-size="14" lengthAdjust="spacing" textLength="113">2e:a3:9e:a9:68:</text><text x="125" y="41.292" fill="#FFF" font-family="sans-serif" font-size="14" font-style="italic" lengthAdjust="spacing" textLength="18">23</text><rect style="stroke:#3fa687;stroke-width:2" width="145" height="46.594" x="5" y="506.586" fill="#275A4B" filter="url(#f8fo3qvvf3v1x)"/><text x="72" y="526.581" fill="#FFF" font-family="sans-serif" font-size="14" font-weight="bold" lengthAdjust="spacing" textLength="11">A</text><text x="12" y="542.878" fill="#FFF" font-family="sans-serif" font-size="14" lengthAdjust="spacing" textLength="113">2e:a3:9e:a9:68:</text><text x="125" y="542.878" fill="#FFF" font-family="sans-serif" font-size="14" font-style="italic" lengthAdjust="spacing" textLength="18">23</text><rect style="stroke:#3fa687;stroke-width:2" width="145" height="46.594" x="229" y="5" fill="#275A4B" filter="url(#f8fo3qvvf3v1x)"/><text x="296.5" y="24.995" fill="#FFF" font-family="sans-serif" font-size="14" font-weight="bold" lengthAdjust="spacing" textLength="10">B</text><text x="236" y="41.292" fill="#FFF" font-family="sans-serif" font-size="14" lengthAdjust="spacing" textLength="113">2e:a3:9e:a9:68:</text><text x="349" y="41.292" fill="#FFF" font-family="sans-serif" font-size="14" font-style="italic" lengthAdjust="spacing" textLength="18">42</text><rect style="stroke:#3fa687;stroke-width:2" width="145" height="46.594" x="229" y="506.586" fill="#275A4B" filter="url(#f8fo3qvvf3v1x)"/><text x="296.5" y="526.581" fill="#FFF" font-family="sans-serif" font-size="14" font-weight="bold" lengthAdjust="spacing" textLength="10">B</text><text x="236" y="542.878" fill="#FFF" font-family="sans-serif" font-size="14" lengthAdjust="spacing" textLength="113">2e:a3:9e:a9:68:</text><text x="349" y="542.878" fill="#FFF" font-family="sans-serif" font-size="14" font-style="italic" lengthAdjust="spacing" textLength="18">42</text><rect style="stroke:#3fa687;stroke-width:2" width="140" height="46.594" x="448.5" y="5" fill="#275A4B" filter="url(#f8fo3qvvf3v1x)"/><text x="513" y="24.995" fill="#FFF" font-family="sans-serif" font-size="14" font-weight="bold" lengthAdjust="spacing" textLength="11">C</text><text x="455.5" y="41.292" fill="#FFF" font-family="sans-serif" font-size="14" lengthAdjust="spacing" textLength="113">2e:a3:9e:a9:68:</text><text x="568.5" y="41.292" fill="#FFF" font-family="sans-serif" font-size="14" font-style="italic" lengthAdjust="spacing" textLength="13">f6</text><rect style="stroke:#3fa687;stroke-width:2" width="140" height="46.594" x="448.5" y="506.586" fill="#275A4B" filter="url(#f8fo3qvvf3v1x)"/><text x="513" y="526.581" fill="#FFF" font-family="sans-serif" font-size="14" font-weight="bold" lengthAdjust="spacing" textLength="11">C</text><text x="455.5" y="542.878" fill="#FFF" font-family="sans-serif" font-size="14" lengthAdjust="spacing" textLength="113">2e:a3:9e:a9:68:</text><text x="568.5" y="542.878" fill="#FFF" font-family="sans-serif" font-size="14" font-style="italic" lengthAdjust="spacing" textLength="13">f6</text><path fill="#30735F" d="M8,71.5938 L8,96.5938 L590,96.5938 L590,81.5938 L580,71.5938 L8,71.5938" filter="url(#f8fo3qvvf3v1x)" style="stroke:#388d73;stroke-width:1"/><path fill="#30735F" d="M580,71.5938 L580,81.5938 L590,81.5938 L580,71.5938" style="stroke:#388d73;stroke-width:1"/><text x="150.75" y="88.661" fill="#FFF" font-family="sans-serif" font-size="13" font-style="italic" lengthAdjust="spacing" textLength="68">Address of</text><text x="222.75" y="88.661" fill="#FFF" font-family="sans-serif" font-size="13" font-style="italic" font-weight="bold" lengthAdjust="spacing" textLength="10">A</text><text x="236.75" y="88.661" fill="#FFF" font-family="sans-serif" font-size="13" font-style="italic" lengthAdjust="spacing" textLength="83">&lt; Address of</text><text x="323.75" y="88.661" fill="#FFF" font-family="sans-serif" font-size="13" font-style="italic" font-weight="bold" lengthAdjust="spacing" textLength="10">B</text><text x="337.75" y="88.661" fill="#FFF" font-family="sans-serif" font-size="13" font-style="italic" lengthAdjust="spacing" textLength="83">&lt; Address of</text><text x="424.75" y="88.661" fill="#FFF" font-family="sans-serif" font-size="13" font-style="italic" font-weight="bold" lengthAdjust="spacing" textLength="10">C</text><path fill="#30735F" d="M17,110.7266 L17,150.7266 L138,150.7266 L138,120.7266 L128,110.7266 L17,110.7266" filter="url(#f8fo3qvvf3v1x)" style="stroke:#388d73;stroke-width:1"/><path fill="#30735F" d="M128,110.7266 L128,120.7266 L138,120.7266 L128,110.7266" style="stroke:#388d73;stroke-width:1"/><text x="23" y="127.793" fill="#FFF" font-family="sans-serif" font-size="13" lengthAdjust="spacing" textLength="50">index: 0</text><text x="23" y="142.926" fill="#FFF" font-family="sans-serif" font-size="13" lengthAdjust="spacing" textLength="100">local subnets: 2</text><path fill="#30735F" d="M458,110.7266 L458,150.7266 L579,150.7266 L579,120.7266 L569,110.7266 L458,110.7266" filter="url(#f8fo3qvvf3v1x)" style="stroke:#388d73;stroke-width:1"/><path fill="#30735F" d="M569,110.7266 L569,120.7266 L579,120.7266 L569,110.7266" style="stroke:#388d73;stroke-width:1"/><text x="464" y="127.793" fill="#FFF" font-family="sans-serif" font-size="13" lengthAdjust="spacing" textLength="50">index: 0</text><text x="464" y="142.926" fill="#FFF" font-family="sans-serif" font-size="13" lengthAdjust="spacing" textLength="100">local subnets: 1</text><path fill="#30735F" d="M241,110.7266 L241,150.7266 L362,150.7266 L362,120.7266 L352,110.7266 L241,110.7266" filter="url(#f8fo3qvvf3v1x)" style="stroke:#388d73;stroke-width:1"/><path fill="#30735F" d="M352,110.7266 L352,120.7266 L362,120.7266 L352,110.7266" style="stroke:#388d73;stroke-width:1"/><text x="247" y="127.793" fill="#FFF" font-family="sans-serif" font-size="13" lengthAdjust="spacing" textLength="50">index: 0</text><text x="247" y="142.926" fill="#FFF" font-family="sans-serif" font-size="13" lengthAdjust="spacing" textLength="100">local subnets: 1</text><polygon fill="#3FA687" points="508.5 177.125 518.5 181.125 508.5 185.125 512.5 181.125" style="stroke:#3fa687;stroke-width:1"/><line style="stroke:#3fa687;stroke-width:2" x1="79.5" x2="514.5" y1="181.125" y2="181.125"/><text x="86.5" y="176.059" fill="#000" font-family="sans-serif" font-size="13" lengthAdjust="spacing" textLength="99">I want to create</text><text x="189.5" y="176.059" fill="#000" font-family="sans-serif" font-size="13" font-weight="bold" lengthAdjust="spacing" textLength="9">2</text><text x="202.5" y="176.059" fill="#000" font-family="sans-serif" font-size="13" lengthAdjust="spacing" textLength="84">local subnets</text><polygon fill="#3FA687" points="291.5 206.258 301.5 210.258 291.5 214.258 295.5 210.258" style="stroke:#3fa687;stroke-width:1"/><line style="stroke:#3fa687;stroke-width:2" x1="79.5" x2="297.5" y1="210.258" y2="210.258"/><text x="86.5" y="205.192" fill="#000" font-family="sans-serif" font-size="13" lengthAdjust="spacing" textLength="99">I want to create</text><text x="189.5" y="205.192" fill="#000" font-family="sans-serif" font-size="13" font-weight="bold" lengthAdjust="spacing" textLength="9">2</text><text x="202.5" y="205.192" fill="#000" font-family="sans-serif" font-size="13" lengthAdjust="spacing" textLength="84">local subnets</text><path fill="#30735F" d="M457,223.2578 L457,263.2578 L579,263.2578 L579,233.2578 L569,223.2578 L457,223.2578" filter="url(#f8fo3qvvf3v1x)" style="stroke:#388d73;stroke-width:1"/><path fill="#30735F" d="M569,223.2578 L569,233.2578 L579,233.2578 L569,223.2578" style="stroke:#388d73;stroke-width:1"/><text x="463" y="240.325" fill="#FFF" font-family="sans-serif" font-size="13" lengthAdjust="spacing" textLength="38">index:</text><text x="505" y="240.325" fill="#FFF" font-family="sans-serif" font-size="13" font-weight="bold" lengthAdjust="spacing" textLength="9">2</text><text x="463" y="255.458" fill="#FFF" font-family="sans-serif" font-size="13" lengthAdjust="spacing" textLength="88">total subnets:</text><text x="555" y="255.458" fill="#FFF" font-family="sans-serif" font-size="13" font-weight="bold" lengthAdjust="spacing" textLength="9">3</text><path fill="#30735F" d="M240,223.2578 L240,263.2578 L362,263.2578 L362,233.2578 L352,223.2578 L240,223.2578" filter="url(#f8fo3qvvf3v1x)" style="stroke:#388d73;stroke-width:1"/><path fill="#30735F" d="M352,223.2578 L352,233.2578 L362,233.2578 L352,223.2578" style="stroke:#388d73;stroke-width:1"/><text x="246" y="240.325" fill="#FFF" font-family="sans-serif" font-size="13" lengthAdjust="spacing" textLength="38">index:</text><text x="288" y="240.325" fill="#FFF" font-family="sans-serif" font-size="13" font-weight="bold" lengthAdjust="spacing" textLength="9">2</text><text x="246" y="255.458" fill="#FFF" font-family="sans-serif" font-size="13" lengthAdjust="spacing" textLength="88">total subnets:</text><text x="338" y="255.458" fill="#FFF" font-family="sans-serif" font-size="13" font-weight="bold" lengthAdjust="spacing" textLength="9">3</text><polygon fill="#3FA687" points="90.5 289.656 80.5 293.656 90.5 297.656 86.5 293.656" style="stroke:#3fa687;stroke-width:1"/><line style="stroke:#3fa687;stroke-width:2" x1="84.5" x2="519.5" y1="293.656" y2="293.656"/><text x="96.5" y="288.59" fill="#000" font-family="sans-serif" font-size="13" lengthAdjust="spacing" textLength="99">I want to create</text><text x="199.5" y="288.59" fill="#000" font-family="sans-serif" font-size="13" font-weight="bold" lengthAdjust="spacing" textLength="9">1</text><text x="212.5" y="288.59" fill="#000" font-family="sans-serif" font-size="13" lengthAdjust="spacing" textLength="77">local subnet</text><polygon fill="#3FA687" points="314.5 318.789 304.5 322.789 314.5 326.789 310.5 322.789" style="stroke:#3fa687;stroke-width:1"/><line style="stroke:#3fa687;stroke-width:2" x1="308.5" x2="519.5" y1="322.789" y2="322.789"/><text x="320.5" y="317.723" fill="#000" font-family="sans-serif" font-size="13" lengthAdjust="spacing" textLength="99">I want to create</text><text x="423.5" y="317.723" fill="#000" font-family="sans-serif" font-size="13" font-weight="bold" lengthAdjust="spacing" textLength="9">1</text><text x="436.5" y="317.723" fill="#000" font-family="sans-serif" font-size="13" lengthAdjust="spacing" textLength="77">local subnet</text><path fill="#30735F" d="M16,335.7891 L16,375.7891 L138,375.7891 L138,345.7891 L128,335.7891 L16,335.7891" filter="url(#f8fo3qvvf3v1x)" style="stroke:#388d73;stroke-width:1"/><path fill="#30735F" d="M128,335.7891 L128,345.7891 L138,345.7891 L128,335.7891" style="stroke:#388d73;stroke-width:1"/><text x="22" y="352.856" fill="#FFF" font-family="sans-serif" font-size="13" lengthAdjust="spacing" textLength="50">index: 0</text><text x="22" y="367.989" fill="#FFF" font-family="sans-serif" font-size="13" lengthAdjust="spacing" textLength="88">total subnets:</text><text x="114" y="367.989" fill="#FFF" font-family="sans-serif" font-size="13" font-weight="bold" lengthAdjust="spacing" textLength="9">3</text><path fill="#30735F" d="M240,335.7891 L240,375.7891 L362,375.7891 L362,345.7891 L352,335.7891 L240,335.7891" filter="url(#f8fo3qvvf3v1x)" style="stroke:#388d73;stroke-width:1"/><path fill="#30735F" d="M352,335.7891 L352,345.7891 L362,345.7891 L352,335.7891" style="stroke:#388d73;stroke-width:1"/><text x="246" y="352.856" fill="#FFF" font-family="sans-serif" font-size="13" lengthAdjust="spacing" textLength="50">index: 2</text><text x="246" y="367.989" fill="#FFF" font-family="sans-serif" font-size="13" lengthAdjust="spacing" textLength="88">total subnets:</text><text x="338" y="367.989" fill="#FFF" font-family="sans-serif" font-size="13" font-weight="bold" lengthAdjust="spacing" textLength="9">4</text><polygon fill="#3FA687" points="508.5 402.188 518.5 406.188 508.5 410.188 512.5 406.188" style="stroke:#3fa687;stroke-width:1"/><line style="stroke:#3fa687;stroke-width:2" x1="303.5" x2="514.5" y1="406.188" y2="406.188"/><text x="310.5" y="401.122" fill="#000" font-family="sans-serif" font-size="13" lengthAdjust="spacing" textLength="99">I want to create</text><text x="413.5" y="401.122" fill="#000" font-family="sans-serif" font-size="13" font-weight="bold" lengthAdjust="spacing" textLength="9">1</text><text x="426.5" y="401.122" fill="#000" font-family="sans-serif" font-size="13" lengthAdjust="spacing" textLength="77">local subnet</text><polygon fill="#3FA687" points="90.5 431.32 80.5 435.32 90.5 439.32 86.5 435.32" style="stroke:#3fa687;stroke-width:1"/><line style="stroke:#3fa687;stroke-width:2" x1="84.5" x2="302.5" y1="435.32" y2="435.32"/><text x="96.5" y="430.254" fill="#000" font-family="sans-serif" font-size="13" lengthAdjust="spacing" textLength="99">I want to create</text><text x="199.5" y="430.254" fill="#000" font-family="sans-serif" font-size="13" font-weight="bold" lengthAdjust="spacing" textLength="9">1</text><text x="212.5" y="430.254" fill="#000" font-family="sans-serif" font-size="13" lengthAdjust="spacing" textLength="77">local subnet</text><path fill="#30735F" d="M16,448.3203 L16,488.3203 L138,488.3203 L138,458.3203 L128,448.3203 L16,448.3203" filter="url(#f8fo3qvvf3v1x)" style="stroke:#388d73;stroke-width:1"/><path fill="#30735F" d="M128,448.3203 L128,458.3203 L138,458.3203 L128,448.3203" style="stroke:#388d73;stroke-width:1"/><text x="22" y="465.387" fill="#FFF" font-family="sans-serif" font-size="13" lengthAdjust="spacing" textLength="99">index: 0 local: 2</text><text x="22" y="480.52" fill="#FFF" font-family="sans-serif" font-size="13" lengthAdjust="spacing" textLength="88">total subnets:</text><text x="114" y="480.52" fill="#FFF" font-family="sans-serif" font-size="13" font-weight="bold" lengthAdjust="spacing" textLength="9">4</text><path fill="#30735F" d="M457,448.3203 L457,488.3203 L579,488.3203 L579,458.3203 L569,448.3203 L457,448.3203" filter="url(#f8fo3qvvf3v1x)" style="stroke:#388d73;stroke-width:1"/><path fill="#30735F" d="M569,448.3203 L569,458.3203 L579,458.3203 L569,448.3203" style="stroke:#388d73;stroke-width:1"/><text x="463" y="465.387" fill="#FFF" font-family="sans-serif" font-size="13" lengthAdjust="spacing" textLength="38">index:</text><text x="505" y="465.387" fill="#FFF" font-family="sans-serif" font-size="13" font-weight="bold" lengthAdjust="spacing" textLength="9">3</text><text x="518" y="465.387" fill="#FFF" font-family="sans-serif" font-size="13" lengthAdjust="spacing" textLength="45">local: 1</text><text x="463" y="480.52" fill="#FFF" font-family="sans-serif" font-size="13" lengthAdjust="spacing" textLength="88">total subnets:</text><text x="555" y="480.52" fill="#FFF" font-family="sans-serif" font-size="13" font-weight="bold" lengthAdjust="spacing" textLength="9">4</text><path fill="#30735F" d="M241,448.3203 L241,488.3203 L362,488.3203 L362,458.3203 L352,448.3203 L241,448.3203" filter="url(#f8fo3qvvf3v1x)" style="stroke:#388d73;stroke-width:1"/><path fill="#30735F" d="M352,448.3203 L352,458.3203 L362,458.3203 L352,448.3203" style="stroke:#388d73;stroke-width:1"/><text x="247" y="465.387" fill="#FFF" font-family="sans-serif" font-size="13" lengthAdjust="spacing" textLength="99">index: 2 local: 1</text><text x="247" y="480.52" fill="#FFF" font-family="sans-serif" font-size="13" lengthAdjust="spacing" textLength="100">total subnets: 4</text></g></svg>